# xmcd CD database file
#
# Track frame offsets:
#	150
#	2482
#	19180
#	41712
#	59042
#	88087
#	101462
#	124037
#	152952
#	173537
#	208312
#	216880
#
# Disc length: 3185 seconds
#
# Revision: 3
# Processed by: cddbd v1.5PL3 Copyright (c) Steve Scherf et al.
# Submitted via: CDex 1.50Beta6
#
DISCID=a30c6f0c
DTITLE=YYRKOON - Dying Sun
DYEAR=2002
DGENRE=Heavy Metal
TTITLE0=Idols are burning
TTITLE1=Crystal Light
TTITLE2=Flight Of The Titan
TTITLE3=The Clans
TTITLE4=Thrash'em All
TTITLE5=Gods Of Silver
TTITLE6=Stolen Souls
TTITLE7=Screamer
TTITLE8=Back To The Cave
TTITLE9=Inner Ghost(Japan Bonus)
TTITLE10=Dying Sun
TTITLE11=The Invisible Guests(King Diammond Cover-Japan Bonus)
EXTD=YEAR: 2002
EXTT0=
EXTT1=
EXTT2=
EXTT3=
EXTT4=
EXTT5=
EXTT6=
EXTT7=
EXTT8=
EXTT9=
EXTT10=
EXTT11=
PLAYORDER=
